<svg xmlns="http://www.w3.org/2000/svg" id="BACKGROUND" x="0" y="0" version="1.1" viewBox="0 0 750 500" xml:space="preserve"><style>.st8{fill:#2f2833}.st36{fill:#0d5770}.st37{fill:#fff}</style><linearGradient id="SVGID_1_" x1="749.81" x2="-3.39" y1="3.61" y2="498.74" gradientUnits="userSpaceOnUse"><stop offset=".32" stop-color="#c8eac0"/><stop offset=".42" stop-color="#bfe8c4"/><stop offset=".57" stop-color="#a7e1ce"/><stop offset=".76" stop-color="#80d7e0"/><stop offset=".96" stop-color="#51caf4"/></linearGradient><path fill="url(#SVGID_1_)" d="M0 0h750v500H0z"/><g opacity=".54"><linearGradient id="SVGID_2_" x1="666.68" x2="666.68" y1="331.57" y2="164.25" gradientUnits="userSpaceOnUse"><stop offset="0" stop-color="#3bd4c3"/><stop offset="1" stop-color="#187a93"/></linearGradient><path fill="url(#SVGID_2_)" d="M750 164.3s-43.6-2.2-59.6 33.8-53.5 14.1-58.7 56.7-48.3 76.8-48.3 76.8H750V164.3z"/><circle cx="507.9" cy="286" r="66.8" fill="#f3fcd0"/><linearGradient id="SVGID_3_" x1="266.43" x2="266.43" y1="331.57" y2="142.53" gradientUnits="userSpaceOnUse"><stop offset="0" stop-color="#3bd4c3"/><stop offset="1" stop-color="#187a93"/></linearGradient><path fill="url(#SVGID_3_)" d="M0 143.8s70.5-11.1 107.5 32.3 69 12 95.7 14 46.7 46.1 85.4 46.7c38.7.7 51.4-34.7 82.8-32s58.1 104.1 161.5 126.8H0V143.8z"/><linearGradient id="SVGID_4_" x1="647.92" x2="647.92" y1="331.57" y2="225.45" gradientUnits="userSpaceOnUse"><stop offset="0" stop-color="#3c3461"/><stop offset=".16" stop-color="#3a3a63"/><stop offset=".37" stop-color="#354b69"/><stop offset=".61" stop-color="#2d6672"/><stop offset=".87" stop-color="#228c7f"/><stop offset="1" stop-color="#1ca286"/></linearGradient><path fill="url(#SVGID_4_)" d="M750 272.4c-3-2.1-8.1-.8-8.5 3.8v.2c0 .5-.2 1.2-.3 1.8-3.7-14.9-12.6-32-13.3-40v-.3c-1.2-11.7-18.3-11.7-19.5 0v.3c-.5 6.4-6.2 18.4-10.4 30.5-2.2-5.8-4.2-10.9-4.5-14.1v-.2c-.9-8.9-13.9-8.9-14.8 0v.2c-.3 4-3.3 10.9-6.1 18.4-1.7-4.6-3.2-8.5-3.4-11.2v-.2c-.9-8.9-13.9-8.9-14.8 0v.2c-.3 3.2-2.2 8.1-4.3 13.7-5.4-15.2-12.3-30.1-13-38.1v-.4c-1.5-15.3-23.9-15.3-25.4 0v.4c-.7 8-7.4 22.6-12.8 37.7-2.2-5.6-4-10.5-4.2-13.8v-.3c-1-10.3-16.1-10.3-17.1 0v.3c-.6 6.7-7.4 20.3-11 32.8-.8-2.3-1.5-4.3-1.6-5.8v-.2c-.6-6.4-10-6.4-10.7 0v.2c-.5 5.5-7.7 18.3-8.2 27.3v16H750v-59.2z"/><linearGradient id="SVGID_5_" x1="375" x2="375" y1="530.89" y2="331.57" gradientUnits="userSpaceOnUse"><stop offset="0" stop-color="#18a0b2"/><stop offset=".44" stop-color="#18a6b2"/><stop offset="1" stop-color="#18b6b2"/></linearGradient><path fill="url(#SVGID_5_)" d="M0 331.6h750V500H0z"/><linearGradient id="SVGID_6_" x1="644.55" x2="644.55" y1="365.24" y2="266.17" gradientUnits="userSpaceOnUse"><stop offset="0" stop-color="#1c548e"/><stop offset="1" stop-color="#3ca773"/></linearGradient><path fill="url(#SVGID_6_)" d="M656.5 277.2v-.4c-1.4-14.3-22.3-14.3-23.8 0v.4c-1.1 13-19.5 44.9-18.1 65 1.4 20 20 23 30.1 23 10 0 28.7-3 30.1-23 1.2-20-17.3-52-18.3-65z"/><path d="M645.5 335.8c-.1-7.5-.2-8.3-.3-15 5.3-.3 10.3-2.7 13.8-6.6l3-3.3-2.9 2.9c-3.7 3.7-8.7 5.9-13.9 6-.3-13.6-.6-30.9-.6-30.9l-.8 37.7c-5.2-.2-10.1-2.3-13.8-6l-2.9-2.9 3 3.3c3.6 3.9 8.5 6.2 13.7 6.6l-.3 15c-5.1-.3-9.9-2.4-13.5-6l-2.9-2.9 3 3.3c3.5 3.8 8.3 6.1 13.4 6.6l-.8 35.2h3.8s-.5-18.3-.9-42c5.2-.4 10-2.8 13.5-6.6l3-3.3-2.9 2.9c-3.7 3.6-8.6 5.7-13.7 6z" class="st8"/><linearGradient id="SVGID_7_" x1="693.85" x2="693.85" y1="387.31" y2="288.23" gradientUnits="userSpaceOnUse"><stop offset="0" stop-color="#1c548e"/><stop offset="1" stop-color="#3ca773"/></linearGradient><path fill="url(#SVGID_7_)" d="M705.8 299.3v-.4c-1.4-14.3-22.3-14.3-23.8 0v.4c-1.1 13-19.5 44.9-18.1 65 1.4 20 20 23 30.1 23 10 0 28.7-3 30.1-23 1.2-20-17.3-52-18.3-65z"/><path d="M694.8 357.8c-.1-7.5-.2-8.3-.3-15 5.3-.3 10.3-2.7 13.8-6.6l3-3.3-2.9 2.9c-3.7 3.7-8.7 5.9-13.9 6-.3-13.6-.6-30.9-.6-30.9l-.8 37.7c-5.2-.2-10.1-2.3-13.8-6l-2.9-2.9 3 3.3c3.6 3.9 8.5 6.2 13.7 6.6l-.3 15c-5.1-.3-9.9-2.4-13.5-6l-2.9-2.9 3 3.3c3.5 3.8 8.3 6.1 13.4 6.6l-.8 35.2h3.8s-.5-18.3-.9-42c5.2-.4 10-2.8 13.5-6.6l3-3.3-2.9 2.9a20.5 20.5 0 01-13.7 6z" class="st8"/><linearGradient id="SVGID_8_" x1="151.39" x2="151.39" y1="363.2" y2="221.67" gradientUnits="userSpaceOnUse"><stop offset="0" stop-color="#3c3461"/><stop offset=".16" stop-color="#3a3a63"/><stop offset=".37" stop-color="#354b69"/><stop offset=".61" stop-color="#2d6672"/><stop offset=".87" stop-color="#228c7f"/><stop offset="1" stop-color="#1ca286"/></linearGradient><path fill="url(#SVGID_8_)" d="M0 331.6h302.8c-2.5-11.8-10-26-10.6-32.6v-.2c-.9-8.9-14-8.9-14.8 0v.2c-.2 2.4-1.4 5.9-2.9 9.9-4.3-14.6-12.2-30.3-12.8-38.1v-.3c-1.2-12.2-19.2-12.2-20.4 0v.3c-.7 8.1-9.1 24.6-13.3 39.7-1.5-4-2.8-7.5-3-9.8v-.2c-.8-7.7-12-7.7-12.8 0v.2c-.1 1.5-.7 3.5-1.5 5.8-4.8-20.3-17.1-43.8-18-54.9v-.4c-1.6-15.6-24.5-15.6-26 0v.4c-.7 8.3-7.9 23.7-13.4 39.5-1-3-1.7-5.6-1.8-7.6v-.3c-1.2-11.9-18.7-11.9-19.9 0v.3c-.2 2.9-1.5 7-3.3 11.7-6.4-18-14.5-35.4-15.2-44.9v-.5c-1.8-18.3-28.7-18.3-30.5 0v.5c-.8 9.6-9 27.4-15.5 45.6-3.9-10.2-7.9-19.5-8.3-25v-.3c-1.2-12.2-19.2-12.2-20.4 0v.3c-.3 3.5-2.1 8.7-4.3 14.6-6.5-19.6-16.1-39.4-16.9-49.8v-.5c-1-9.6-9-14-16.5-13.3v109.7z"/><linearGradient id="SVGID_9_" x1="83.86" x2="83.86" y1="384.77" y2="250.93" gradientUnits="userSpaceOnUse"><stop offset="0" stop-color="#1c548e"/><stop offset="1" stop-color="#3ca773"/></linearGradient><path fill="url(#SVGID_9_)" d="M100 265.9v-.5c-1.9-19.3-30.2-19.3-32.1 0v.5c-1.5 17.6-26.3 60.7-24.5 87.8 1.8 27.1 27.1 31.1 40.6 31.1s38.8-4 40.6-31.1c1.7-27.1-23.2-70.3-24.6-87.8z"/><path d="M85.1 344.9c-.2-10.2-.2-11.3-.4-20.3 7.1-.5 13.9-3.6 18.7-8.9l4.1-4.4-4 4c-5 5-11.8 7.9-18.8 8.1-.4-18.3-.8-41.7-.8-41.7l-1 50.9c-7-.3-13.7-3.1-18.7-8.1l-4-4 4.1 4.4c4.8 5.2 11.4 8.4 18.5 8.9l-.4 20.3c-6.9-.4-13.3-3.2-18.2-8.1l-4-4 4.1 4.4c4.7 5.1 11.2 8.3 18.1 8.9l-1.1 47.5h5.2s-.6-24.8-1.3-56.7c7-.6 13.5-3.7 18.3-8.9l4.1-4.4-4 4c-5 5-11.6 7.8-18.5 8.1z" class="st8"/><linearGradient id="SVGID_10_" x1="187.78" x2="187.78" y1="411.79" y2="303.99" gradientUnits="userSpaceOnUse"><stop offset="0" stop-color="#1c548e"/><stop offset="1" stop-color="#3ca773"/></linearGradient><path fill="url(#SVGID_10_)" d="M200.7 316v-.4c-1.5-15.5-24.3-15.5-25.9 0v.4c-1.2 14.1-21.2 48.9-19.7 70.7 1.5 21.8 21.8 25 32.7 25 10.9 0 31.2-3.2 32.7-25 1.5-21.8-18.6-56.5-19.8-70.7z"/><path d="M188.8 379.7c-.2-8.2-.2-9.1-.3-16.4 5.8-.4 11.2-2.9 15.1-7.2l3.3-3.6-3.2 3.2c-4 4-9.5 6.4-15.2 6.5l-.7-33.6-.8 41c-5.6-.2-11-2.5-15-6.5l-3.2-3.2 3.3 3.6c3.9 4.2 9.2 6.8 14.9 7.2l-.3 16.4a22.6 22.6 0 01-14.7-6.5l-3.2-3.2 3.3 3.6c3.8 4.1 9 6.7 14.6 7.2l-.9 38.3h4.2s-.5-19.9-1-45.7c5.6-.4 10.9-3 14.7-7.2l3.3-3.6-3.2 3.2c-4.1 3.9-9.4 6.3-15 6.5z" class="st8"/><linearGradient id="SVGID_11_" x1="605.98" x2="605.98" y1="373.7" y2="299.31" gradientUnits="userSpaceOnUse"><stop offset="0" stop-color="#3c778e"/><stop offset="1" stop-color="#a9d99f"/></linearGradient><path fill="url(#SVGID_11_)" d="M614.9 307.6v-.3c-1.1-10.7-16.8-10.7-17.8 0v.3c-.8 9.8-14.6 33.7-13.6 48.8 1 15 15 17.3 22.6 17.3 7.5 0 21.5-2.2 22.6-17.3.9-15-13-39-13.8-48.8z"/><path d="M606.7 351.6c-.1-5.6-.1-6.3-.2-11.3 4-.3 7.7-2 10.4-5l2.3-2.5-2.2 2.2c-2.8 2.8-6.5 4.4-10.5 4.5-.2-10.2-.5-23.2-.5-23.2l-.6 28.3c-3.9-.1-7.6-1.7-10.4-4.5l-2.2-2.2 2.3 2.5c2.7 2.9 6.4 4.7 10.3 5l-.2 11.3c-3.8-.2-7.4-1.8-10.1-4.5l-2.2-2.2 2.3 2.5a15 15 0 0010.1 4.9l-.6 26.4h2.8s-.4-13.8-.7-31.5c3.9-.3 7.5-2.1 10.2-4.9l2.3-2.5-2.2 2.2c-2.9 2.7-6.6 4.3-10.4 4.5z" class="st8"/><linearGradient id="SVGID_12_" x1="133.51" x2="133.51" y1="425.8" y2="317.85" gradientUnits="userSpaceOnUse"><stop offset="0" stop-color="#3c778e"/><stop offset="1" stop-color="#a9d99f"/></linearGradient><path fill="url(#SVGID_12_)" d="M146.5 329.9v-.4c-1.5-15.5-24.3-15.5-25.9 0v.4c-1.2 14.2-21.2 49-19.8 70.8 1.5 21.8 21.8 25.1 32.7 25.1 10.9 0 31.3-3.2 32.7-25.1 1.5-21.8-18.5-56.6-19.7-70.8z"/><path d="M134.5 393.7c-.2-8.2-.2-9.1-.3-16.4 5.8-.4 11.2-2.9 15.1-7.2l3.3-3.6-3.2 3.2c-4 4-9.5 6.4-15.2 6.6l-.7-33.7-.8 41.1c-5.7-.2-11-2.5-15-6.6l-3.2-3.2 3.3 3.6c3.9 4.2 9.2 6.8 14.9 7.2l-.3 16.4a22.6 22.6 0 01-14.7-6.5l-3.2-3.2 3.3 3.6c3.8 4.1 9 6.7 14.6 7.2l-.9 38.3h4.2s-.5-20-1-45.7c5.6-.4 10.9-3 14.7-7.2l3.3-3.6-3.2 3.2c-4.1 3.9-9.4 6.2-15 6.5z" class="st8"/><linearGradient id="SVGID_13_" x1="252.83" x2="252.83" y1="452.3" y2="367.17" gradientUnits="userSpaceOnUse"><stop offset="0" stop-color="#3c778e"/><stop offset="1" stop-color="#a9d99f"/></linearGradient><path fill="url(#SVGID_13_)" d="M263.1 376.7v-.3c-1.2-12.2-19.2-12.2-20.4 0v.3c-.9 11.2-16.8 38.6-15.6 55.8 1.2 17.2 17.2 19.8 25.8 19.8 8.6 0 24.7-2.6 25.8-19.8 1.1-17.2-14.7-44.7-15.6-55.8z"/><path d="M253.6 427c-.1-6.5-.1-7.2-.3-12.9 4.5-.3 8.8-2.3 11.9-5.7l2.6-2.8-2.5 2.5c-3.2 3.2-7.5 5-12 5.2-.2-11.6-.5-26.5-.5-26.5l-.6 32.4c-4.5-.2-8.7-2-11.9-5.2l-2.5-2.5 2.6 2.8c3.1 3.3 7.3 5.4 11.8 5.7l-.3 12.9c-4.4-.2-8.5-2.1-11.6-5.2l-2.5-2.5 2.6 2.8c3 3.3 7.1 5.3 11.5 5.7l-.7 30.2h3.2s-.4-15.8-.8-36c4.4-.4 8.6-2.4 11.6-5.7l2.6-2.8-2.5 2.5c-3.1 3-7.3 4.9-11.7 5.1z" class="st8"/><linearGradient id="SVGID_14_" x1="228.8" x2="252.28" y1="502.55" y2="463.85" gradientUnits="userSpaceOnUse"><stop offset="0" stop-color="#44757a" stop-opacity="0"/><stop offset="1" stop-color="#44757a"/></linearGradient><path fill="url(#SVGID_14_)" d="M234.1 500l20.4-36.2h-3.3L226.6 500z"/><linearGradient id="SVGID_15_" x1="-1014.28" x2="-987.58" y1="441.45" y2="397.44" gradientTransform="matrix(-1 0 0 1 -287.67 0)" gradientUnits="userSpaceOnUse"><stop offset="0" stop-color="#44757a" stop-opacity="0"/><stop offset="1" stop-color="#44757a"/></linearGradient><path fill="url(#SVGID_15_)" d="M695.7 400.7l41.2 41.3h-8L692 400.7z"/><linearGradient id="SVGID_16_" x1="-964.97" x2="-938.27" y1="419.38" y2="375.38" gradientTransform="matrix(-1 0 0 1 -287.67 0)" gradientUnits="userSpaceOnUse"><stop offset="0" stop-color="#44757a" stop-opacity="0"/><stop offset="1" stop-color="#44757a"/></linearGradient><path fill="url(#SVGID_16_)" d="M646.4 378.6l41.2 41.3h-8.1l-36.9-41.3z"/><linearGradient id="SVGID_17_" x1="-927.6" x2="-900.62" y1="424.72" y2="380.24" gradientTransform="matrix(-1 0 0 1 -287.67 0)" gradientUnits="userSpaceOnUse"><stop offset="0" stop-color="#44757a" stop-opacity="0"/><stop offset="1" stop-color="#44757a"/></linearGradient><path fill="url(#SVGID_17_)" d="M607.4 383.8l43.3 41.2h-8.1l-38-41.2z"/><linearGradient id="SVGID_18_" x1="161.15" x2="185.51" y1="465.36" y2="425.2" gradientUnits="userSpaceOnUse"><stop offset="0" stop-color="#44757a" stop-opacity="0"/><stop offset="1" stop-color="#44757a"/></linearGradient><path fill="url(#SVGID_18_)" d="M185.7 426.4l-30.9 41.3h8l27-41.3z"/><linearGradient id="SVGID_19_" x1="106.88" x2="131.27" y1="479.4" y2="439.21" gradientUnits="userSpaceOnUse"><stop offset="0" stop-color="#44757a" stop-opacity="0"/><stop offset="1" stop-color="#44757a"/></linearGradient><path fill="url(#SVGID_19_)" d="M131.4 440.4l-30.9 41.3h8l27.1-41.3z"/><linearGradient id="SVGID_20_" x1="57.16" x2="81.76" y1="442.03" y2="401.48" gradientUnits="userSpaceOnUse"><stop offset="0" stop-color="#44757a" stop-opacity="0"/><stop offset="1" stop-color="#44757a"/></linearGradient><path fill="url(#SVGID_20_)" d="M81.4 402.9l-31 41.3h8l28-41.3z"/><linearGradient id="SVGID_21_" x1="61.58" x2="61.58" y1="546.83" y2="412.99" gradientUnits="userSpaceOnUse"><stop offset="0" stop-color="#1c548e"/><stop offset="1" stop-color="#3ca773"/></linearGradient><path fill="url(#SVGID_21_)" d="M100.9 500c-5-25.9-22-57.6-23.2-72v-.5c-1.9-19.3-30.2-19.3-32.1 0v.5c-1.2 14.4-18.2 46.2-23.2 72h78.5z"/><path d="M60.5 495.9l-.1 4.1h2.2c-.1-4.5-.1-6.9-.3-13.3 7.1-.5 13.9-3.6 18.7-8.9l4.1-4.4-4 4c-5 5-11.8 7.9-18.8 8.1-.4-18.3-.8-41.7-.8-41.7l-1 50.9c-7-.3-13.7-3.1-18.7-8.1l-4-4L42 487c4.8 5.2 11.5 8.4 18.5 8.9z" class="st8"/><linearGradient id="SVGID_22_" x1="728.86" x2="728.86" y1="485.81" y2="392.72" gradientUnits="userSpaceOnUse"><stop offset="0" stop-color="#3c778e"/><stop offset="1" stop-color="#a9d99f"/></linearGradient><path fill="url(#SVGID_22_)" d="M750 413.8c-1.5-4.2-2.6-7.9-2.8-10.6v-.4c-1.3-13.4-21-13.4-22.3 0v.4c-1 12.2-18.3 42.2-17 61.1 1.3 18.8 18.8 21.6 28.2 21.6 3.9 0 9.1-.5 14-2.3v-69.8z"/><path d="M750 452.4v-.2l-.3.3c-3.4 3.4-8 5.4-12.8 5.6-.1-7.1-.2-7.8-.3-14.1 5-.3 9.6-2.5 13-6.2l.4-.4v-.2l-.3.3c-3.5 3.5-8.2 5.5-13.1 5.7-.3-12.7-.6-29-.6-29l-.7 35.4c-4.9-.2-9.5-2.2-13-5.6l-2.8-2.8 2.8 3.1c3.3 3.6 8 5.9 12.9 6.2l-.3 14.1c-4.8-.2-9.3-2.2-12.7-5.6l-2.8-2.8 2.8 3.1c3.3 3.6 7.8 5.8 12.6 6.2l-.8 33h3.6l-.9-39.4c4.9-.4 9.4-2.6 12.7-6.2l.6-.5z" class="st8"/><linearGradient id="SVGID_23_" x1="371.61" x2="371.61" y1="369.86" y2="333.83" gradientUnits="userSpaceOnUse"><stop offset="0" stop-color="#1c548e"/><stop offset="1" stop-color="#6da77d"/></linearGradient><path fill="url(#SVGID_23_)" d="M371.1 333.8c-9.9.3-17.5 8.9-17.5 18.8v6.3c0 6.1 4.9 11 11 11h14.1c6.1 0 11-4.9 11-11v-7.1c-.1-10.1-8.4-18.3-18.6-18z"/><path d="M372.3 360.6c-.1-3.3-.1-2.8-.2-5.7 4-.2 7.8-2.1 10.6-3.8l2.3-1.5-2.2 1.3c-2.8 1.6-6.6 2.6-10.6 2.7-.2-6-.5-13.7-.5-13.7l-.6 16.7c-4-.1-7.7-1-10.5-2.7l-2.2-1.3 2.3 1.5c2.7 1.7 6.5 3.7 10.5 3.8l-.2 5.7c-3.9-.1-7.5-1.1-10.3-2.7l-2.2-1.3 2.3 1.5c2.7 1.7 6.3 3.6 10.2 3.8l-.2 8.2h2.1c-.1-2.6-.2-8-.3-11.2 3.9-.2 7.6-2.1 10.3-3.8l2.3-1.5-2.2 1.3a24.9 24.9 0 01-10.7 2.7z" class="st8"/><g><linearGradient id="SVGID_24_" x1="294.19" x2="294.19" y1="361.33" y2="325.29" gradientUnits="userSpaceOnUse"><stop offset="0" stop-color="#1c548e"/><stop offset="1" stop-color="#6da77d"/></linearGradient><path fill="url(#SVGID_24_)" d="M293.6 325.3c-9.9.3-17.5 8.9-17.5 18.8v6.3c0 6.1 4.9 11 11 11h14.1c6.1 0 11-4.9 11-11v-7.1c0-10.1-8.4-18.3-18.6-18z"/><path d="M294.9 352.1c-.1-3.3-.1-2.8-.2-5.7 4-.2 7.8-2.1 10.6-3.8l2.3-1.5-2.2 1.3c-2.8 1.6-6.6 2.6-10.6 2.7-.2-6-.5-13.7-.5-13.7l-.6 16.7c-4-.1-7.7-1-10.5-2.7l-2.2-1.3 2.3 1.5c2.7 1.7 6.5 3.7 10.5 3.8l-.2 5.7c-3.9-.1-7.5-1.1-10.3-2.7l-2.2-1.3 2.3 1.5c2.7 1.7 6.3 3.6 10.2 3.8l-.2 8.2h2.1c-.1-2.6-.2-8-.3-11.2 3.9-.2 7.6-2.1 10.3-3.8l2.3-1.5-2.2 1.3a24.9 24.9 0 01-10.7 2.7z" class="st8"/></g><g><linearGradient id="SVGID_25_" x1="345.81" x2="345.81" y1="374.97" y2="347.03" gradientUnits="userSpaceOnUse"><stop offset="0" stop-color="#3c778e"/><stop offset="1" stop-color="#bdd98e"/></linearGradient><path fill="url(#SVGID_25_)" d="M345.4 347c-7.6.2-13.5 6.9-13.5 14.5v4.9c0 4.7 3.8 8.5 8.5 8.5h10.9c4.7 0 8.5-3.8 8.5-8.5V361a14 14 0 00-14.4-14z"/><path d="M346.4 367.8c-.1-2.6-.1-2.2-.2-4.5 3.1-.1 6.1-1.6 8.2-3l1.8-1.1-1.7 1c-2.2 1.3-5.2 2-8.2 2.1-.2-4.7-.4-10.6-.4-10.6l-.4 12.9c-3.1-.1-6-.8-8.2-2.1l-1.7-1 1.8 1.1c2.1 1.3 5 2.9 8.1 3l-.2 4.5c-3-.1-5.8-.8-8-2.1l-1.7-1 1.8 1.1c2.1 1.3 4.9 2.8 7.9 3l-.2 6.4h1.6c-.1-2-.2-6.2-.3-8.7 3.1-.1 5.9-1.7 8-3l1.8-1.1-1.7 1c-2.2 1.3-5.1 2-8.1 2.1z" class="st8"/></g><g><linearGradient id="SVGID_26_" x1="398.93" x2="398.93" y1="374.97" y2="347.03" gradientUnits="userSpaceOnUse"><stop offset="0" stop-color="#3c778e"/><stop offset="1" stop-color="#bdd98e"/></linearGradient><path fill="url(#SVGID_26_)" d="M398.5 347c-7.6.2-13.5 6.9-13.5 14.5v4.9c0 4.7 3.8 8.5 8.5 8.5h10.9c4.7 0 8.5-3.8 8.5-8.5V361a14 14 0 00-14.4-14z"/><path d="M399.5 367.8c-.1-2.6-.1-2.2-.2-4.5 3.1-.1 6.1-1.6 8.2-3l1.8-1.1-1.7 1c-2.2 1.3-5.2 2-8.2 2.1-.2-4.7-.4-10.6-.4-10.6l-.4 12.9c-3.1-.1-6-.8-8.2-2.1l-1.7-1 1.8 1.1c2.1 1.3 5 2.9 8.1 3l-.2 4.5c-3-.1-5.8-.8-8-2.1l-1.7-1 1.8 1.1c2.1 1.3 4.9 2.8 7.9 3l-.2 6.4h1.6c-.1-2-.2-6.2-.3-8.7 3.1-.1 5.9-1.7 8-3l1.8-1.1-1.7 1c-2.2 1.3-5.1 2-8.1 2.1z" class="st8"/></g><g><linearGradient id="SVGID_27_" x1="562.14" x2="562.14" y1="374.97" y2="347.03" gradientUnits="userSpaceOnUse"><stop offset="0" stop-color="#3c778e"/><stop offset="1" stop-color="#bdd98e"/></linearGradient><path fill="url(#SVGID_27_)" d="M561.7 347c-7.6.2-13.5 6.9-13.5 14.5v4.9c0 4.7 3.8 8.5 8.5 8.5h10.9c4.7 0 8.5-3.8 8.5-8.5V361a14 14 0 00-14.4-14z"/><path d="M562.7 367.8c-.1-2.6-.1-2.2-.2-4.5 3.1-.1 6.1-1.6 8.2-3l1.8-1.1-1.7 1c-2.2 1.3-5.2 2-8.2 2.1-.2-4.7-.4-10.6-.4-10.6l-.4 12.9c-3.1-.1-6-.8-8.2-2.1l-1.7-1 1.8 1.1c2.1 1.3 5 2.9 8.1 3l-.2 4.5c-3-.1-5.8-.8-8-2.1l-1.7-1 1.8 1.1c2.1 1.3 4.9 2.8 7.9 3l-.2 6.4h1.6c-.1-2-.2-6.2-.3-8.7 3.1-.1 5.9-1.7 8-3l1.8-1.1-1.7 1c-2.2 1.3-5.1 2-8.1 2.1z" class="st8"/></g><linearGradient id="SVGID_28_" x1="340.25" x2="340.25" y1="392.78" y2="377.5" gradientUnits="userSpaceOnUse"><stop offset="0" stop-color="#44757a" stop-opacity="0"/><stop offset="1" stop-color="#44757a"/></linearGradient><path fill="url(#SVGID_28_)" d="M345 377.5l-11.1 15.3h3.7l9-15.3z"/><linearGradient id="SVGID_29_" x1="288.66" x2="288.66" y1="379.87" y2="364.59" gradientUnits="userSpaceOnUse"><stop offset="0" stop-color="#44757a" stop-opacity="0"/><stop offset="1" stop-color="#44757a"/></linearGradient><path fill="url(#SVGID_29_)" d="M293.2 364.6l-11.1 15.3h3.7l9.4-15.3z"/><linearGradient id="SVGID_30_" x1="366.06" x2="366.06" y1="388.41" y2="373.12" gradientUnits="userSpaceOnUse"><stop offset="0" stop-color="#44757a" stop-opacity="0"/><stop offset="1" stop-color="#44757a"/></linearGradient><path fill="url(#SVGID_30_)" d="M370.6 373.1l-11.1 15.3h3.7l9.5-15.3z"/><linearGradient id="SVGID_31_" x1="393.37" x2="393.37" y1="392.78" y2="377.5" gradientUnits="userSpaceOnUse"><stop offset="0" stop-color="#44757a" stop-opacity="0"/><stop offset="1" stop-color="#44757a"/></linearGradient><path fill="url(#SVGID_31_)" d="M398.1 377.5L387 392.8h3.7l9-15.3z"/><linearGradient id="SVGID_32_" x1="-925.51" x2="-925.51" y1="392.78" y2="377.5" gradientTransform="matrix(-1 0 0 1 -357.86 0)" gradientUnits="userSpaceOnUse"><stop offset="0" stop-color="#44757a" stop-opacity="0"/><stop offset="1" stop-color="#44757a"/></linearGradient><path fill="url(#SVGID_32_)" d="M562.9 377.5l11.1 15.3h-3.7l-9-15.3z"/><linearGradient id="SVGID_33_" x1="464.96" x2="667.36" y1="312.66" y2="529.56" gradientUnits="userSpaceOnUse"><stop offset="0" stop-color="#7ea596"/><stop offset=".39" stop-color="#4e8c95"/><stop offset=".79" stop-color="#217493"/><stop offset="1" stop-color="#0f6b93"/></linearGradient><path fill="url(#SVGID_33_)" d="M439.3 362.8c6.3 7.2 14.5 11.8 22.6 15.6 8.2 3.8 16.6 6.7 25 9.3 16.8 5.3 33.5 9.7 49.8 14.8 16.2 5.1 32.1 10.7 46.4 18.2 14.3 7.4 26.9 16.6 35.5 27.9 4.4 5.6 7.7 11.7 10.2 18.1 2.7 7.1 4.8 14.4 6 21.4.7 4.1 1.1 8.1 1.1 12h42.3c-.9-7.6-2.5-15-4.7-21.9-3.1-9.7-7.1-18.7-11.7-27.2-5-9.2-11.3-17.6-18.6-24.8-14.6-14.4-32.2-23.5-49.6-29.9-34.9-12.5-70-15.3-103.5-21.3-8.4-1.5-16.6-3.3-24.6-5.7-7.9-2.5-15.6-5.7-21.4-10.9a27.6 27.6 0 01-6.9-9.4c-1.5-3.5-1.5-7.4.3-10.9 1.2-2.4 3.2-4.6 5.4-6.5h-3.7c-1.7 1.3-3.3 2.9-4.6 4.8-1.3 2-2.3 4.3-2.7 6.7-.4 2.5-.1 5 .5 7.3 1.5 4.7 3.9 8.8 6.9 12.4z"/><path d="M641.5 427.6c7.3 7.2 13.5 15.7 18.5 24.9 4.5 8.6 8.5 17.5 11.5 27.3 2 6.4 3.5 13.2 4.4 20.2h2.4c-.9-7.6-2.5-15-4.7-21.9-3.1-9.7-7.1-18.7-11.7-27.2-5-9.2-11.3-17.6-18.6-24.8-14.6-14.4-32.2-23.5-49.6-29.9-34.9-12.5-69.9-15.3-103.5-21.3 33.3 6.2 67.4 9.7 102.1 22.4 17.2 6.5 34.7 15.7 49.2 30.3zM442.9 358.3c5.8 5.3 13.5 8.5 21.3 11.1 7.9 2.5 16.9 3.9 25.2 5.5.2 0 .3.1.5.1-8.4-1.5-16.6-3.3-24.5-5.7-7.9-2.5-15.6-5.7-21.4-10.9a27.6 27.6 0 01-6.9-9.4c-1.5-3.5-1.5-7.4.3-10.9 1.2-2.4 3.2-4.6 5.4-6.5h-.8c-2.3 1.9-4.2 4-5.5 6.4-1.9 3.5-1.8 7.4-.4 10.9 1.5 3.4 4 6.8 6.8 9.4z" class="st36"/></g><path d="M698.7 57.6l-1.7-.3-.7-1.5-.8 1.5-1.7.3 1.3 1.2-.3 1.7 1.5-.8 1.5.8-.3-1.7z" class="st37 star1"/><path d="M177.2 70.3l-1.7-.2-.8-1.6-.7 1.6-1.7.2 1.2 1.2-.3 1.7 1.5-.8 1.5.8-.3-1.7z" class="st37 star2"/><path d="M440.5 31.9l-1.7-.2-.7-1.5-.8 1.5-1.7.2 1.2 1.2-.2 1.7 1.5-.8 1.5.8-.3-1.7z" class="st37 star3"/><path d="M299.3 34.3l-1.7-.3-.7-1.5-.8 1.5-1.7.3 1.2 1.2-.2 1.6 1.5-.8 1.5.8-.3-1.6z" class="st37 star4"/><path d="M86.3 59.9l-1.7-.2-.7-1.6-.8 1.6-1.7.2 1.2 1.2-.3 1.7 1.6-.8 1.5.8-.3-1.7z" class="st37 star5"/><path d="M45.6 20.5l-1.7-.3-.7-1.5-.8 1.5-1.7.3 1.2 1.2-.3 1.6 1.6-.8 1.5.8-.3-1.6z" class="st37 star6"/><path d="M586.6 49.8l-1.7-.3-.7-1.5-.8 1.5-1.7.3 1.2 1.1-.2 1.7 1.5-.8 1.5.8-.3-1.7z" class="st37 star7"/><path d="M157.4 132l-1.6-.2-.8-1.5-.8 1.5-1.6.2 1.2 1.2-.3 1.7 1.5-.8 1.5.8-.3-1.7z" class="st37 star8"/><path d="M45.6 115.5l-1.7-.2-.7-1.5-.8 1.5-1.7.2 1.2 1.2-.3 1.7 1.6-.8 1.5.8-.3-1.7z" class="st37 star9"/><path d="M629.5 142l-1.7-.3-.7-1.5-.8 1.5-1.7.3 1.2 1.2-.3 1.7 1.6-.8 1.5.8-.3-1.7z" class="st37 star10"/><path d="M683.1 152.4l-1.7-.3-.7-1.5-.8 1.5-1.7.3 1.2 1.1-.2 1.7 1.5-.8 1.5.8-.3-1.7z" class="st37 star1"/><path d="M563.7 182.7l-1.7-.2-.7-1.5-.8 1.5-1.7.2 1.2 1.2-.2 1.7 1.5-.8 1.5.8-.3-1.7z" class="st37 star2"/></svg>